{"title":"Game.of.Thrones.x264.S06E08.WEBRiP-DDR","uid":14904825,"size":513218520,"categoryP":"video","categoryS":"tv_shows","magnet":"?xt=urn:btih:575abab609a43d9f9445f73d69976c801002bcee&amp;dn=Game.of.Thrones.x264.S06E08.WEBRiP-DDR&amp;tr=udp%3A%2F%2Ftracker.leechers-paradise.org%3A6969&amp;tr=udp%3A%2F%2Fzer0day.ch%3A1337&amp;tr=udp%3A%2F%2Fopen.demonii.com%3A1337&amp;tr=udp%3A%2F%2Ftracker.coppersurfer.tk%3A6969&amp;tr=udp%3A%2F%2Fexodus.desync.com%3A6969","seeders":16,"leechers":4,"uploader":"SaM","files":3,"time":1465842930,"description":"- TV Series -\r\n**- Game Of Thrones -**\r\n**-Season 6 - Episode 8 -**\r\n- (2016) -\r\n** 420p Web-Rip x264 AAC 2.0 **\r\nMulti subtitle(s)\r\n \nhttp://extraimago.com/image/aYzc \nhttp://extraimago.com/image/aYz1 \nhttp://extraimago.com/image/aYzE \nhttp://extraimago.com/image/aYzO \nhttp://extraimago.com/image/aYzS\r\n\r\n[ Specs ]\r\nGeneral\r\nSource: 1080p WebHD\r\n\r\nFormat : Matroska\r\nFile size : 477 MiB\r\nDuration : 55mn 54s\r\nOverall bit rate : 1 194 Kbps\r\nEncoded date : UTC 2016-06-13 00:06:58\r\nWriting application : mkvmerge v9.2.0 ('Photograph') 64bit\r\nWriting library : libebml v1.3.3 + libmatroska v1.4.4\r\n\r\nVideo\r\nID : 1\r\nFormat : AVC\r\nFormat/Info : Advanced Video Codec\r\nFormat profile :   \r\nFormat settings, CABAC : Yes\r\nFormat settings, ReFrames : 8 frames\r\nCodec ID : V_MPEG4/ISO/AVC\r\nDuration : 55mn 54s\r\nBit rate : 1 001 Kbps\r\nWidth : 720 pixels\r\nHeight : 400 pixels\r\nDisplay aspect ratio : 16:9\r\nFrame rate mode : Constant\r\nFrame rate : 25.000 fps\r\nColor space : YUV\r\nChroma subsampling : 4:2:0\r\nBit depth : 8 bits\r\nScan type : Progressive\r\nBits/(Pixel*Frame) : 0.139\r\nStream size : 401 MiB (84%)\r\nWriting library : x264 core 148 r2692 64f4e24\r\nLanguage : English\r\nDefault : Yes\r\nForced : No\r\n\r\nAudio\r\nID : 2\r\nFormat : AAC\r\nFormat/Info : Advanced Audio Codec\r\nFormat profile : LC\r\nCodec ID : A_AAC\r\nDuration : 55mn 54s\r\nBit rate : 192 Kbps\r\nChannel(s) : 2 channels\r\nChannel positions : Front: L R\r\nSampling rate : 44.1 KHz\r\nFrame rate : 43.066 fps (1024 spf)\r\nCompression mode : Lossy\r\nStream size : 75.8 MiB (16%)\r\nLanguage : English\r\nDefault : Yes\r\nForced : No\r\n\r\n\r\nChapters: NO\r\nSample: YES - included\r\n\r\nA DDR Exclusive Release...!","torrent":{"xt":"urn:btih:575abab609a43d9f9445f73d69976c801002bcee","amp;dn":"Game.of.Thrones.x264.S06E08.WEBRiP-DDR","amp;tr":["udp%3A%2F%2Ftracker.leechers-paradise.org%3A6969","udp%3A%2F%2Fzer0day.ch%3A1337","udp%3A%2F%2Fopen.demonii.com%3A1337","udp%3A%2F%2Ftracker.coppersurfer.tk%3A6969","udp%3A%2F%2Fexodus.desync.com%3A6969"],"infoHash":"575abab609a43d9f9445f73d69976c801002bcee","infoHashBuffer":{"type":"Buffer","data":[87,90,186,182,9,164,61,159,148,69,247,61,105,151,108,128,16,2,188,238]},"announce":[],"urlList":[]}}